<?xml version="1.0" standalone="no"?>
<svg xmlns="http://www.w3.org/2000/svg" viewBox="0 0 102.349 29" width="102.349" height="29"><g fill="#143fe6" color="#143fe6" transform="translate(0, 0) scale(0.6041667)"><svg width="28.0" height="48.0" x="0.0" y="0.0" viewBox="0 0 28 48"><path fill="currentColor" fill-rule="nonzero" d="M13.93.61L.36 30.2l13.57 17.19L27.51 30.2 13.93.61zm0 3.92L25.6 30.02H2.26L13.93 4.53z"></path></svg></g><line x1="28.917" y1="1" x2="28.917" y2="28" stroke="#171f45" stroke-linecap="round"></line><path fill="#171f45" fill-rule="nonzero" d="M9.12 2.40L14.59 18.05L11.11 18.05L10.15 15.10L4.42 15.10L3.48 18.05L0 18.05L5.47 2.40Q5.83 1.58 6.28 1.27Q6.72 0.96 7.37 0.96Q8.02 0.96 8.41 1.25Q8.81 1.54 9.12 2.40L9.12 2.40ZM5.26 12.29L9.38 12.29L7.37 5.52L5.26 12.29ZM22.56 18.07L22.56 18.07L19.85 18.05Q18.05 18.05 17.12 16.99Q16.20 15.94 16.20 14.47L16.20 14.47L16.20 0L19.32 0L19.32 6.05L23.04 4.32Q25.18 4.32 26.18 5.47L26.18 5.47Q27.07 6.50 27.29 8.81L27.29 8.81Q27.36 9.77 27.36 11.18L27.36 11.18Q27.36 18.07 22.56 18.07ZM20.11 15.38L20.11 15.38L21.65 15.38Q24.24 15.38 24.24 11.18L24.24 11.18Q24.24 9.05 23.84 8.21Q23.45 7.37 22.13 7.37L22.13 7.37L19.32 8.88L19.32 14.28Q19.32 15.24 20.11 15.38ZM36.86 4.34L40.15 4.34L34.94 19.58Q34.58 20.62 34.01 21.19L34.01 21.19Q33.05 22.15 31.32 22.15L31.32 22.15L29.86 22.15L29.86 19.34L30.82 19.34Q31.49 19.34 31.81 19.12Q32.14 18.89 32.38 18.22L32.38 18.22L32.62 17.54L28.49 4.34L31.78 4.34L34.22 13.87L36.86 4.34ZM51.41 14.26L51.41 14.26L51.41 14.62Q51.26 16.42 49.88 17.33Q48.50 18.24 46.44 18.24L46.44 18.24Q43.39 18.24 42.17 17.14L42.17 17.14Q41.04 16.13 41.04 14.16L41.04 14.16L41.04 13.87L43.87 13.87Q43.87 14.98 44.45 15.38Q45.02 15.79 46.44 15.79L46.44 15.79Q48.36 15.79 48.36 14.40L48.36 14.40Q48.36 13.25 47.69 12.86L47.69 12.86Q47.38 12.67 46.90 12.58L46.90 12.58L44.47 12.17Q41.30 11.66 41.30 8.21L41.30 8.21Q41.30 6.29 42.71 5.22Q44.11 4.15 46.27 4.15L46.27 4.15Q51.19 4.15 51.19 8.40L51.19 8.40L51.19 8.71L48.48 8.71Q48.43 7.58 47.88 7.18Q47.33 6.77 46.33 6.77Q45.34 6.77 44.83 7.16Q44.33 7.56 44.33 8.04L44.33 8.04Q44.33 9.41 45.43 9.60L45.43 9.60L48.34 10.13Q51.41 10.70 51.41 14.26ZM63.43 14.26L63.43 14.26L63.43 14.62Q63.29 16.42 61.91 17.33Q60.53 18.24 58.46 18.24L58.46 18.24Q55.42 18.24 54.19 17.14L54.19 17.14Q53.06 16.13 53.06 14.16L53.06 14.16L53.06 13.87L55.90 13.87Q55.90 14.98 56.47 15.38Q57.05 15.79 58.46 15.79L58.46 15.79Q60.38 15.79 60.38 14.40L60.38 14.40Q60.38 13.25 59.71 12.86L59.71 12.86Q59.40 12.67 58.92 12.58L58.92 12.58L56.50 12.17Q53.33 11.66 53.33 8.21L53.33 8.21Q53.33 6.29 54.73 5.22Q56.14 4.15 58.30 4.15L58.30 4.15Q63.22 4.15 63.22 8.40L63.22 8.40L63.22 8.71L60.50 8.71Q60.46 7.58 59.90 7.18Q59.35 6.77 58.36 6.77Q57.36 6.77 56.86 7.16Q56.35 7.56 56.35 8.04L56.35 8.04Q56.35 9.41 57.46 9.60L57.46 9.60L60.36 10.13Q63.43 10.70 63.43 14.26Z" transform="translate(38.917, 5.476)"></path></svg>